<svg xmlns="http://www.w3.org/2000/svg" viewBox="0 0 40 40" width="40" height="40">
  <defs>
    <linearGradient id="g1" x1="0%" y1="0%" x2="100%" y2="100%">
      <stop offset="0%" stop-color="#1a56db"/>
      <stop offset="100%" stop-color="#2563eb"/>
    </linearGradient>
  </defs>
  <!-- Gear (background) -->
  <circle cx="14" cy="24" r="12" fill="none" stroke="#1a56db" stroke-width="2.5" opacity="0.3"/>
  <g fill="#1a56db" opacity="0.5">
    <rect x="12" y="9" width="4" height="5" rx="1"/>
    <rect x="12" y="34" width="4" height="5" rx="1"/>
    <rect x="0" y="22" width="5" height="4" rx="1"/>
    <rect x="23" y="22" width="5" height="4" rx="1"/>
  </g>
  <!-- Phone -->
  <rect x="11" y="4" width="22" height="34" rx="4" fill="url(#g1)"/>
  <rect x="13" y="8" width="18" height="26" rx="2" fill="#fff" opacity="0.15"/>
  <!-- Notch -->
  <rect x="17" y="5" width="10" height="2.5" rx="1.25" fill="#fff" opacity="0.3"/>
  <!-- WiFi -->
  <path d="M30 10 Q34 7 38 10" fill="none" stroke="#1a56db" stroke-width="2" stroke-linecap="round"/>
  <path d="M32 13 Q34 11 36 13" fill="none" stroke="#1a56db" stroke-width="1.5" stroke-linecap="round"/>
  <circle cx="34" cy="15.5" r="1.2" fill="#1a56db"/>
  <!-- Graph line on phone screen -->
  <polyline points="15,28 19,22 23,25 27,16 29,18" fill="none" stroke="#fff" stroke-width="1.5" stroke-linecap="round" stroke-linejoin="round" opacity="0.8"/>
  <!-- Home -->
  <rect x="18" y="33" width="8" height="1.5" rx="0.75" fill="#fff" opacity="0.3"/>
</svg>
